PathFileType	4	(X/Y/Z)	E:\Qualisys_Data\Carbon_Farble_Plate\Data\Amateur_Runner\S1\T2\S1T2V11_c3d.trc
DataRate	CameraRate	NumFrames	NumMarkers	Units	OrigDataRate	OrigDataStartFrame	OrigNumFrames
200.000000	200.000000	5	39	mm	200.000000	78	312
Frame#	Time	LSHO			RSHO			LICST			RICST			LASIS			LHEEL			RASIS			LTROC			RTROC			SACR			LTH1			LSK4			LTH2			LTH3			RHM5			LSK2			LTH4			RTH1			LTOE			RTH2			RTH3			RTH4			LLEP			RLEP			LSK1			LSK3			RSK1			LHM5			RSK2			LFT1			RSK3			RSK4			LLME			RLME			RTOE			RHEEL			RFT1			RFT2			LFT2			
		X1	Y1	Z1	X2	Y2	Z2	X3	Y3	Z3	X4	Y4	Z4	X5	Y5	Z5	X6	Y6	Z6	X7	Y7	Z7	X8	Y8	Z8	X9	Y9	Z9	X10	Y10	Z10	X11	Y11	Z11	X12	Y12	Z12	X13	Y13	Z13	X14	Y14	Z14	X15	Y15	Z15	X16	Y16	Z16	X17	Y17	Z17	X18	Y18	Z18	X19	Y19	Z19	X20	Y20	Z20	X21	Y21	Z21	X22	Y22	Z22	X23	Y23	Z23	X24	Y24	Z24	X25	Y25	Z25	X26	Y26	Z26	X27	Y27	Z27	X28	Y28	Z28	X29	Y29	Z29	X30	Y30	Z30	X31	Y31	Z31	X32	Y32	Z32	X33	Y33	Z33	X34	Y34	Z34	X35	Y35	Z35	X36	Y36	Z36	X37	Y37	Z37	X38	Y38	Z38	X39	Y39	Z39	

79	0.39	-1002.185119628906	1541.904174804688	-537.9848022460938	-913.6517944335938	1536.843017578125	-228.1863861083984	-974.5025024414062	1069.790893554688	-506.7451477050781	-966.2279663085938	1086.17724609375	-212.3067626953125	-931.7367553710938	1030.636474609375	-480.8097229003906	-832.7130126953125	92.78478240966795	-390.1312255859375	-931.5259399414062	1035.10595703125	-219.8880615234375	-1027.604125976562	943.8749389648438	-527.5833740234375	-1054.047241210938	961.0078125	-186.5245208740234	-1090.273315429688	1095.925170898438	-354.4552307128906	-873.8355102539062	816.53369140625	-492.5545654296875	-870.479736328125	260.3689270019531	-431.2440795898438	-946.1332397460938	790.1708984375	-533.3267211914062	-847.7689819335938	716.746826171875	-477.8854064941406	-1473.717895507812	169.8590393066406	-219.8958282470703	-884.4972534179688	355.357421875	-472.2835998535156	-927.0057983398438	694.4308471679688	-508.3655090332031	-962.2339477539062	804.9650268554688	-219.4101409912109	-593.2608032226562	182.0266571044922	-406.4295349121094	-1032.09521484375	820.6651611328125	-186.7875061035156	-989.239501953125	708.182373046875	-230.7656402587891	-1062.004272460938	726.7516479492188	-202.60302734375	-848.5806884765625	569.4190063476562	-458.3947143554688	-1096.5673828125	556.5545043945312	-238.6040954589844	-802.0183715820312	365.8745727539062	-465.1790466308594	-793.6013793945312	265.2293701171875	-457.7179870605469	-1250.324584960938	440.8134460449219	-216.4190673828125	-642.6980590820312	120.6353530883789	-466.4002990722656	-1298.6865234375	505.5594177246094	-229.0291442871094	-810.3521728515625	72.15814971923828	-364.391357421875	-1329.63671875	376.8644409179688	-225.7164916992188	-1376.186157226562	442.4137573242188	-247.0373687744141	-796.5894165039062	136.6128997802734	-446.8785400390625	-1452.319580078125	323.0013122558594	-222.5532531738281	-1430.895874023438	125.8875885009766	-295.5875244140625	-1506.08251953125	364.4777526855469	-263.8567504882812	-1530.19482421875	344.6917419433594	-296.7495422363281	-1533.714477539062	349.7449645996094	-240.7811737060547	-814.6717529296875	63.17435455322266	-416.9422607421875
80	0.395	-985.3568115234376	1538.476684570312	-538.5646362304688	-897.11474609375	1534.316650390625	-229.0845794677734	-960.3029174804688	1066.84033203125	-507.3641052246094	-950.9367065429688	1083.209350585938	-211.8757171630859	-915.9207763671876	1027.940063476562	-481.2200012207031	-822.1635131835938	89.17217254638672	-388.715576171875	-915.650146484375	1032.24072265625	-220.0027770996094	-1012.561828613281	941.8731689453124	-527.0143432617188	-1037.290161132812	956.738037109375	-185.6233520507812	-1074.551513671875	1092.562744140625	-353.7629699707031	-857.6679077148438	815.4219970703125	-493.5010986328125	-857.9181518554688	257.4983825683594	-430.4869995117188	-930.060302734375	788.3392944335938	-533.1417236328125	-831.0189208984375	715.6603393554688	-478.833251953125	-1457.723266601562	174.4873199462891	-218.771240234375	-870.3241577148438	352.6583251953125	-471.7327270507812	-910.9755249023438	692.8419189453125	-506.7458190917969	-943.7003173828124	802.09423828125	-219.3059844970703	-582.1456298828125	178.1676788330078	-405.6549072265625	-1013.355102539062	816.9693603515625	-186.6722412109375	-969.0316772460938	704.6962280273438	-230.4639587402344	-1041.973388671875	722.2359619140625	-202.3771057128906	-833.3472900390625	566.458740234375	-457.9217529296875	-1075.183349609375	552.1026000976562	-238.0457458496094	-788.0070190429688	362.6189575195312	-463.5369567871094	-780.6555786132812	261.8959350585938	-455.8825073242188	-1230.350219726562	439.8167114257812	-215.29345703125	-632.0568237304688	116.6124649047852	-464.994873046875	-1277.585327148438	505.4593200683594	-228.9078216552734	-799.4281616210938	68.41755676269531	-362.5686645507812	-1311.41259765625	379.7090454101562	-223.8908386230469	-1356.394165039062	444.0880737304688	-246.6979522705078	-783.5399169921875	133.7620849609375	-443.5872497558594	-1436.712158203125	327.1932678222656	-223.0496215820312	-1417.565795898438	130.3476257324219	-294.6728515625	-1488.270751953125	369.9461669921875	-262.6421203613281	-1515.225708007812	351.3930053710938	-296.2377319335938	-1516.925537109375	355.395263671875	-240.0387573242188	-803.6967163085938	59.59736251831055	-414.4406433105469
81	0.4	-968.4984741210938	1535.053955078125	-539.567138671875	-880.7449340820312	1531.513549804688	-230.0540771484375	-946.0526733398438	1064.429077148438	-507.789794921875	-934.8873901367188	1079.662353515625	-211.5349273681641	-899.8626098632812	1026.007202148438	-481.5385131835938	-811.6093139648438	86.26618194580078	-385.5050659179688	-899.7265014648438	1029.24755859375	-219.8104705810547	-997.2509765625	939.2175903320312	-526.6136474609375	-1020.341430664062	952.9647827148438	-184.5237579345703	-1059.125	1088.961547851562	-353.2144775390625	-841.2989501953125	814.32373046875	-494.4420471191406	-845.9244995117188	254.6139984130859	-429.6103820800781	-915.6011962890624	786.4369506835938	-531.8433837890625	-813.9608154296875	714.4409790039062	-479.2566223144531	-1443.622192382812	179.7654418945312	-217.8082427978516	-857.2813110351562	349.767578125	-470.3968811035156	-894.5028076171875	691.1271362304688	-505.2341003417969	-925.2927856445312	798.5237426757812	-219.2595977783203	-572.1163940429688	173.7485504150391	-404.1957397460938	-995.0708618164062	812.3717651367188	-186.4168395996094	-948.5442504882812	701.1282958984375	-229.5993041992188	-1021.956726074219	717.5800170898438	-201.9579925537109	-817.733154296875	563.6743774414062	-457.4610900878906	-1053.304321289062	547.202880859375	-237.3966369628906	-774.533447265625	358.4244079589844	-461.6839904785156	-768.6826782226562	257.6448669433594	-454.0442199707031	-1210.640380859375	438.5277099609375	-214.8245239257812	-622.2549438476562	112.2654266357422	-463.6365356445312	-1255.880004882812	505.3327026367188	-228.7846984863281	-789.345947265625	64.60991668701172	-360.7366943359375	-1292.6748046875	380.6038818359375	-223.0439300537109	-1336.404907226562	445.8457946777344	-246.5411529541016	-775.471923828125	129.2712860107422	-442.6880187988281	-1417.790161132812	331.2624206542969	-221.951416015625	-1403.62255859375	133.9809722900391	-293.6055908203125	-1470.50048828125	375.2019958496094	-261.9701843261719	-1497.817993164062	357.1402282714844	-295.9811096191406	-1498.474731445312	361.0573425292969	-238.4658966064453	-794.1783447265625	55.59255981445312	-412.6693725585938
82	0.405	-951.6520385742188	1530.9443359375	-540.31396484375	-864.4935913085938	1528.34326171875	-231.0421142578125	-931.96435546875	1062.079711914062	-507.4507141113281	-919.3788452148438	1075.927734375	-211.0190734863281	-884.9171752929688	1023.69775390625	-481.4915161132812	-803.26611328125	81.76215362548828	-384.9379272460938	-883.8112182617188	1025.576293945312	-219.5688934326172	-982.2850341796876	936.9429931640624	-526.130126953125	-1003.566955566406	948.9359130859376	-183.4272766113281	-1043.370971679688	1085.182250976562	-352.1217041015625	-824.7997436523438	812.5452880859375	-495.5253295898438	-834.9644775390625	251.4239959716797	-428.0935668945312	-899.9812622070312	783.97265625	-530.5548095703125	-798.3096313476562	713.2139282226562	-479.5942687988281	-1427.853515625	184.3681793212891	-216.7422943115234	-844.2579345703125	346.6702880859375	-469.6440734863281	-878.38134765625	689.0792236328125	-503.0528259277344	-906.5099487304688	795.2508544921875	-218.7812194824219	-562.99365234375	168.8738861083984	-403.0304565429688	-976.5919799804688	807.6587524414062	-186.2584075927734	-928.4810791015624	697.4441528320312	-228.3210754394531	-1002.262939453125	712.2445678710938	-202.304931640625	-803.1067504882812	560.2212524414062	-456.5211486816406	-1031.470458984375	542.105224609375	-236.2936553955078	-761.9464111328125	354.072021484375	-460.3033447265625	-757.37744140625	253.0165252685547	-452.5087890625	-1190.36962890625	436.6552734375	-214.6050262451172	-613.4135131835938	106.9700393676758	-461.9877014160156	-1233.52392578125	504.5639343261719	-228.5693054199219	-780.9154663085938	60.81764984130859	-358.7128601074219	-1273.668212890625	381.2682189941406	-221.7238922119141	-1315.705200195312	447.0686950683594	-246.4899444580078	-764.3568725585938	125.2677307128906	-440.1352233886719	-1400.501342773438	334.5814208984375	-220.8795776367188	-1389.182373046875	137.5896453857422	-292.3121032714844	-1451.112915039062	380.0817565917969	-261.1529541015625	-1478.87109375	362.3650512695312	-294.2701721191406	-1479.898193359375	366.9154357910156	-238.2580413818359	-785.14794921875	51.5304069519043	-410.9580993652344
83	0.41	-934.6224975585938	1526.8974609375	-541.2957763671875	-848.165283203125	1525.141357421875	-231.8812713623047	-915.5072021484376	1059.632202148438	-506.8052978515625	-903.6141357421876	1072.078979492188	-210.3744201660156	-869.6801147460938	1021.124572753906	-481.8793640136719	-794.3162841796875	80.80400085449219	-382.279052734375	-868.1052856445312	1021.814086914062	-219.7693634033203	-967.290283203125	934.09423828125	-525.7130737304688	-987.0020141601562	944.0541381835938	-183.1027984619141	-1028.075927734375	1081.244873046875	-351.7189331054688	-808.1091918945312	810.9970703125	-497.02978515625	-824.1178588867188	248.2759094238281	-426.4559020996094	-884.0619506835938	781.5922241210938	-529.3187866210938	-781.3405151367188	711.2048950195312	-480.1706848144531	-1411.778442382812	188.3739471435547	-215.8302764892578	-832.0945434570312	343.5686950683594	-468.3733215332031	-861.4900512695312	686.9341430664062	-501.1313171386719	-887.9077758789062	791.8369750976562	-218.45947265625	-554.8451538085938	162.8619995117188	-401.6817626953125	-958.3255004882812	803.1502685546875	-185.6177673339844	-908.2127685546876	693.6278686523438	-227.415283203125	-982.2349243164062	707.44189453125	-200.1237945556641	-787.7753295898438	556.6318359375	-455.7705993652344	-1008.902709960938	537.298583984375	-235.3058166503906	-749.3441772460938	349.7236328125	-459.6416015625	-746.8485107421875	248.3627319335938	-450.9644165039062	-1169.3076171875	435.1488342285156	-213.6155548095703	-605.6868286132812	101.6765213012695	-460.4128112792969	-1211.154296875	503.8515930175781	-228.6149597167969	-773.1632690429688	58.45447158813477	-356.8963928222656	-1253.861328125	381.8799743652344	-221.1024017333984	-1294.27197265625	448.0990905761719	-246.0332489013672	-758.281005859375	121.0052490234375	-439.8309020996094	-1381.991943359375	337.9703369140625	-220.4780578613281	-1373.480102539062	141.3394012451172	-291.4869689941406	-1431.937622070312	384.6881408691406	-260.8027038574219	-1459.353393554688	367.1530151367188	-293.5697326660156	-1455.959716796875	371.7690124511719	-234.0598449707031	-778.3555908203125	50.02832794189453	-409.1078491210938
